<svg xmlns="http://www.w3.org/2000/svg" version="1.1" xmlns:xlink="http://www.w3.org/1999/xlink" xmlns:svgjs="http://svgjs.dev/svgjs" width="1000" height="623" viewBox="0 0 1000 623"><g transform="matrix(1,0,0,1,-0.6060606060606233,0.2522267206477409)"><svg viewBox="0 0 396 247" data-background-color="#35185a" preserveAspectRatio="xMidYMid meet" height="623" width="1000" xmlns="http://www.w3.org/2000/svg" xmlns:xlink="http://www.w3.org/1999/xlink"><g id="tight-bounds" transform="matrix(1,0,0,1,0.2400000000000091,-0.09999999999999432)"><svg viewBox="0 0 395.52 247.2" height="247.2" width="395.52"><g><svg></svg></g><g><svg viewBox="0 0 395.52 247.2" height="247.2" width="395.52"><g transform="matrix(1,0,0,1,75.54432,55.80584509695292)"><svg viewBox="0 0 244.43135999999998 135.58830980609414" height="135.58830980609414" width="244.43135999999998"><g><svg viewBox="0 0 244.43135999999998 135.58830980609414" height="135.58830980609414" width="244.43135999999998"><g><svg viewBox="0 0 244.43135999999998 135.58830980609414" height="135.58830980609414" width="244.43135999999998"><g><svg viewBox="0 0 244.43135999999998 135.58830980609414" height="135.58830980609414" width="244.43135999999998"><g><svg viewBox="0 0 244.43135999999998 135.58830980609414" height="135.58830980609414" width="244.43135999999998"><g><svg viewBox="0 0 244.43135999999998 135.58830980609414" height="135.58830980609414" width="244.43135999999998"><g transform="matrix(1,0,0,1,0,0)"><svg width="244.43135999999998" viewBox="3.1 -39.55 72.2 40.05" height="135.58830980609414" data-palette-color="#ffffff"><path d="M37.75-0.6L37.75-0.6 26.95-11.35Q26.35-11.95 26.35-12.7 26.35-13.45 26.95-14.05L26.95-14.05Q27.5-14.6 28.25-14.6 29-14.6 29.6-14.05L29.6-14.05 40.45-3.25Q41-2.65 41-1.93 41-1.2 40.45-0.6L40.45-0.6Q39.85 0 39.1 0 38.35 0 37.75-0.6ZM23.05 0.5L23.05 0.5Q18.7 0.5 15.05-1 11.4-2.5 8.72-5.2 6.05-7.9 4.58-11.55 3.1-15.2 3.1-19.55L3.1-19.55Q3.1-23.85 4.58-27.5 6.05-31.15 8.72-33.85 11.4-36.55 15.05-38.05 18.7-39.55 23.05-39.55L23.05-39.55Q27.35-39.55 31-38.05 34.65-36.55 37.35-33.85 40.05-31.15 41.53-27.5 43-23.85 43-19.55L43-19.55Q43-15.2 41.53-11.55 40.05-7.9 37.35-5.2 34.65-2.5 31-1 27.35 0.5 23.05 0.5ZM23.05-3.2L23.05-3.2Q26.5-3.2 29.45-4.42 32.4-5.65 34.58-7.88 36.75-10.1 37.95-13.08 39.15-16.05 39.15-19.55L39.15-19.55Q39.15-23 37.95-25.98 36.75-28.95 34.58-31.18 32.4-33.4 29.45-34.63 26.5-35.85 23.05-35.85L23.05-35.85Q19.55-35.85 16.6-34.63 13.65-33.4 11.48-31.18 9.3-28.95 8.1-25.98 6.9-23 6.9-19.55L6.9-19.55Q6.9-16.05 8.1-13.08 9.3-10.1 11.48-7.88 13.65-5.65 16.6-4.42 19.55-3.2 23.05-3.2ZM49.9 0L49.9 0Q49.1 0 48.52-0.58 47.95-1.15 47.95-1.95L47.95-1.95 47.95-37.1Q47.95-37.95 48.5-38.5 49.05-39.05 49.9-39.05L49.9-39.05 73.35-39.05Q74.2-39.05 74.75-38.53 75.3-38 75.3-37.15L75.3-37.15Q75.3-36.4 74.75-35.85 74.2-35.3 73.35-35.3L73.35-35.3 51.85-35.3 51.85-21.5 67.5-21.5Q68.35-21.5 68.9-20.95 69.45-20.4 69.45-19.6L69.45-19.6Q69.45-18.8 68.9-18.25 68.35-17.7 67.5-17.7L67.5-17.7 51.85-17.7 51.85-1.95Q51.85-1.15 51.3-0.58 50.75 0 49.9 0Z" opacity="1" transform="matrix(1,0,0,1,0,0)" fill="#ffffff" class="undefined-text-0" data-fill-palette-color="primary" id="text-0"></path></svg></g></svg></g></svg></g></svg></g></svg></g></svg></g></svg></g><path d="M146.746 49.806L146.746 4.717 384.513 4.717 384.513 242.483 146.746 242.483 146.746 197.394 158.974 197.394 158.974 230.256 372.286 230.256 372.286 16.944 158.974 16.944 158.974 49.806Z" fill="#ffffff" stroke="transparent" data-fill-palette-color="primary"></path></svg></g><defs></defs></svg><rect width="395.52" height="247.2" fill="none" stroke="none" visibility="hidden"></rect></g></svg></g></svg>